<?xml version="1.0" encoding="UTF-8" standalone="no" ?>
<!DOCTYPE svg PUBLIC "-//W3C//DTD SVG 1.1//EN" "http://www.w3.org/Graphics/SVG/1.1/DTD/svg11.dtd">
<svg xmlns="http://www.w3.org/2000/svg" xmlns:xlink="http://www.w3.org/1999/xlink" version="1.1" width="400" height="170" viewBox="0 0 400 170" xml:space="preserve">
<desc>Created with Fabric.js 4.6.0</desc>
<defs>
</defs>
<g transform="matrix(1 0 0 1 272.84 49.64)" style="" id="6B7r5Syo4tso1Z1xWm2En"  >
		<text xml:space="preserve" font-family="Roboto" font-size="60" font-style="normal" font-weight="500" line-height="1" style="stroke: none; stroke-width: 1; stroke-dasharray: none; stroke-linecap: butt; stroke-dashoffset: 0; stroke-linejoin: miter; stroke-miterlimit: 4; fill: rgb(33,150,243); fill-rule: nonzero; opacity: 1; white-space: pre;" ><tspan x="-116.91" y="23.61" >Libraries</tspan></text>
</g>
<g transform="matrix(1 0 0 1 257.85 112.16)" style="" id="332w3acUC_BinXtK2QxoA"  >
		<text xml:space="preserve" font-family="Roboto" font-size="60" font-style="normal" font-weight="500" line-height="1" style="stroke: none; stroke-width: 1; stroke-dasharray: none; stroke-linecap: butt; stroke-dashoffset: 0; stroke-linejoin: miter; stroke-miterlimit: 4; fill: rgb(96,125,139); fill-rule: nonzero; opacity: 1; white-space: pre;" ><tspan x="-101.65" y="21.09" >Hacked</tspan></text>
</g>
<g transform="matrix(1.49 0 0 1.49 60.64 82.64)" id="WsVqGD2H1DlRy2iabNYHt"  >
<path style="stroke: rgb(222,4,205); stroke-width: 0; stroke-dasharray: none; stroke-linecap: butt; stroke-dashoffset: 0; stroke-linejoin: miter; stroke-miterlimit: 4; fill: rgb(255,255,255); fill-opacity: 0; fill-rule: nonzero; opacity: 1;" vector-effect="non-scaling-stroke"  transform=" translate(0, 0)" d="M 0 -12.5 C 6.9 -12.5 12.5 -6.9 12.5 0 C 12.5 6.9 6.9 12.5 0 12.5 C -6.9 12.5 -12.5 6.9 -12.5 0 C -12.5 -6.9 -6.9 -12.5 0 -12.5 z" stroke-linecap="round" />
</g>
<g transform="matrix(1 0 0 1 35 24)" id="Abpckdo4mK_Eap5dFP5zn"  >
<path style="stroke: rgb(222,4,205); stroke-width: 0; stroke-dasharray: none; stroke-linecap: butt; stroke-dashoffset: 0; stroke-linejoin: miter; stroke-miterlimit: 4; fill: rgb(255,255,255); fill-opacity: 0; fill-rule: nonzero; opacity: 1;" vector-effect="non-scaling-stroke"  transform=" translate(-50, -50)" d="M 0 0 L 100 0 L 100 100 L 0 100 Z" stroke-linecap="round" />
</g>
<g transform="matrix(0 1 -1 0 79.49 81)" id="GH4eL5RlmxdF1pIORBPCb"  >
<path style="stroke: rgb(96,125,139); stroke-width: 4; stroke-dasharray: none; stroke-linecap: butt; stroke-dashoffset: 0; stroke-linejoin: miter; stroke-miterlimit: 4; fill: rgb(255,255,255); fill-opacity: 0; fill-rule: nonzero; opacity: 1;" vector-effect="non-scaling-stroke"  transform=" translate(-50, -43.3)" d="M 75 0 L 100 43.30127 L 75 86.60254 L 25 86.60254 L 0 43.30127 L 25 0 z" stroke-linecap="round" />
</g>
<g transform="matrix(1.17 0 0 1.17 78.53 81.72)" id="ZauZK0386nokycx2vQAS3"  >
<path style="stroke: rgb(33,150,243); stroke-width: 4; stroke-dasharray: none; stroke-linecap: butt; stroke-dashoffset: 0; stroke-linejoin: miter; stroke-miterlimit: 4; fill: rgb(255,255,255); fill-opacity: 0; fill-rule: nonzero; opacity: 1;" vector-effect="non-scaling-stroke"  transform=" translate(0, 0)" d="M -42.88817 24.97286 L 42.88816 -24.972849999999998" stroke-linecap="round" />
</g>
<g transform="matrix(1.17 0 0 1.17 79.6 80.86)" id="mJlLR83wHFvTQ_jrQvVmo"  >
<path style="stroke: rgb(96,125,139); stroke-width: 4; stroke-dasharray: none; stroke-linecap: butt; stroke-dashoffset: 0; stroke-linejoin: miter; stroke-miterlimit: 4; fill: rgb(255,255,255); fill-opacity: 0; fill-rule: nonzero; opacity: 1;" vector-effect="non-scaling-stroke"  transform=" translate(0, 0)" d="M -42.61672 -25.2443 L 42.61672 25.2443" stroke-linecap="round" />
</g>
<g transform="matrix(1.24 0 0 1.24 79.36 82.01)" id="mo2AdbU-sd0KY5yA27uI7"  >
<path style="stroke: rgb(96,125,139); stroke-width: 4; stroke-dasharray: none; stroke-linecap: butt; stroke-dashoffset: 0; stroke-linejoin: miter; stroke-miterlimit: 4; fill: rgb(255,255,255); fill-opacity: 0; fill-rule: nonzero; opacity: 1;" vector-effect="non-scaling-stroke"  transform=" translate(0, 0)" d="M -0.27144 -47.77416 L 0.27144999999999997 47.77416" stroke-linecap="round" />
</g>
<g transform="matrix(0.85 0 0 0.85 134.89 48.38)" id="FxgdMDZ2pBoS9IRAVEYkU"  >
<path style="stroke: rgb(33,150,243); stroke-width: 4; stroke-dasharray: none; stroke-linecap: butt; stroke-dashoffset: 0; stroke-linejoin: miter; stroke-miterlimit: 4; fill: none; fill-rule: nonzero; opacity: 1;" vector-effect="non-scaling-stroke"  transform=" translate(0, 0)" d="M 0 -7.5 C 4.14 -7.5 7.5 -4.140000000000001 7.5 0 C 7.5 4.14 4.140000000000001 7.5 0 7.5 C -4.14 7.5 -7.5 4.140000000000001 -7.5 0 C -7.5 -4.14 -4.140000000000001 -7.5 0 -7.5 z" stroke-linecap="round" />
</g>
<g transform="matrix(0.19 0 0 0.19 79.27 80.86)" id="QUbryTTxdvUAOMnAalNWH"  >
<path style="stroke: rgb(33,150,243); stroke-width: 0; stroke-dasharray: none; stroke-linecap: butt; stroke-dashoffset: 0; stroke-linejoin: miter; stroke-miterlimit: 4; fill: rgb(255,87,34); fill-rule: nonzero; opacity: 1;" vector-effect="non-scaling-stroke"  transform=" translate(0, 0)" d="M 0 -50 C 27.6 -50 50 -27.6 50 0 C 50 27.6 27.6 50 0 50 C -27.6 50 -50 27.6 -50 0 C -50 -27.6 -27.6 -50 0 -50 z" stroke-linecap="round" />
</g>
<g transform="matrix(1 0 0 1 22.56 136.81)" id="HD_eK1-xwoYTxpwN3XpV1"  >
<path style="stroke: rgb(33,150,243); stroke-width: 1; stroke-dasharray: none; stroke-linecap: butt; stroke-dashoffset: 0; stroke-linejoin: miter; stroke-miterlimit: 4; fill: rgb(255,255,255); fill-opacity: 0; fill-rule: nonzero; opacity: 1;" vector-effect="non-scaling-stroke"  transform=" translate(0, 0)" d="M 0 0" stroke-linecap="round" />
</g>
<g transform="matrix(1 0 0 1 95.85 144.3)" id="6bpXs2O9TA0UkmquOllTF"  >
<path style="stroke: rgb(33,150,243); stroke-width: 1; stroke-dasharray: none; stroke-linecap: butt; stroke-dashoffset: 0; stroke-linejoin: miter; stroke-miterlimit: 4; fill: rgb(255,255,255); fill-opacity: 0; fill-rule: nonzero; opacity: 1;" vector-effect="non-scaling-stroke"  transform=" translate(0, 0)" d="M 0 0" stroke-linecap="round" />
</g>
<g transform="matrix(1.08 0 0 1.08 108.28 139.58)" id="V1W4VOjHFaU_Mpt6kJlOV"  >
<path style="stroke: rgb(76,175,80); stroke-width: 4; stroke-dasharray: none; stroke-linecap: butt; stroke-dashoffset: 0; stroke-linejoin: miter; stroke-miterlimit: 4; fill: rgb(255,255,255); fill-opacity: 0; fill-rule: nonzero; opacity: 1;" vector-effect="non-scaling-stroke"  transform=" translate(0, 0)" d="M -14.65798 0 L 14.65798 0" stroke-linecap="round" />
</g>
<g transform="matrix(0.36 0 0 0.36 132.94 139.78)" id="_4ACWRqWLM4S3x593szkd"  >
<path style="stroke: rgb(76,175,80); stroke-width: 4; stroke-dasharray: none; stroke-linecap: butt; stroke-dashoffset: 0; stroke-linejoin: miter; stroke-miterlimit: 4; fill: rgb(255,255,255); fill-opacity: 0; fill-rule: nonzero; opacity: 1;" vector-effect="non-scaling-stroke"  transform=" translate(0, 0)" d="M -14.65798 0 L 14.65798 0" stroke-linecap="round" />
</g>
<g transform="matrix(1.98 0 0 1.98 62.61 149.29)" id="FjMqPU5v_5fEVlJzjexxb"  >
<path style="stroke: rgb(76,175,80); stroke-width: 4; stroke-dasharray: none; stroke-linecap: butt; stroke-dashoffset: 0; stroke-linejoin: miter; stroke-miterlimit: 4; fill: rgb(255,255,255); fill-opacity: 0; fill-rule: nonzero; opacity: 1;" vector-effect="non-scaling-stroke"  transform=" translate(0, 0)" d="M -14.65798 0 L 14.65798 0" stroke-linecap="round" />
</g>
<g transform="matrix(0.36 0 0 0.36 45.28 140.52)" id="bfSYoxeUl0SElYxTngNKq"  >
<path style="stroke: rgb(76,175,80); stroke-width: 4; stroke-dasharray: none; stroke-linecap: butt; stroke-dashoffset: 0; stroke-linejoin: miter; stroke-miterlimit: 4; fill: rgb(255,255,255); fill-opacity: 0; fill-rule: nonzero; opacity: 1;" vector-effect="non-scaling-stroke"  transform=" translate(0, 0)" d="M -14.65798 0 L 14.65798 0" stroke-linecap="round" />
</g>
<g transform="matrix(0.36 0 0 0.36 31.79 140.4)" id="QC5OIHS_U-9gjk1tal1tr"  >
<path style="stroke: rgb(76,175,80); stroke-width: 4; stroke-dasharray: none; stroke-linecap: butt; stroke-dashoffset: 0; stroke-linejoin: miter; stroke-miterlimit: 4; fill: rgb(255,255,255); fill-opacity: 0; fill-rule: nonzero; opacity: 1;" vector-effect="non-scaling-stroke"  transform=" translate(0, 0)" d="M -14.65798 0 L 14.65798 0" stroke-linecap="round" />
</g>
</svg>